<?xml version="1.0" encoding="utf-8"?>
<!-- Generator: Adobe Illustrator 19.0.0, SVG Export Plug-In . SVG Version: 6.00 Build 0)  -->
<svg version="1.1" id="Layer_1" xmlns="http://www.w3.org/2000/svg" xmlns:xlink="http://www.w3.org/1999/xlink" x="0px" y="0px"
	 viewBox="0 0 416 426.2" style="enable-background:new 0 0 416 426.2;" xml:space="preserve">
<style type="text/css">
	.st0{fill:none;stroke:white;stroke-width:30;stroke-miterlimit:10;}
</style>
<path class="st0" d="M61.2,333c1.7,2,2.1,4.9,1.1,7.3L34,406.7l103.4-18.1c0.4-0.1,0.8-0.1,1.2-0.1c0.8,0,1.6,0.1,2.4,0.4
	c21.4,8,44.1,12.1,67,12.1c106.4,0,193-86.6,193-193S314.4,15,208,15S15,101.6,15,208c-0.1,24.1,4.4,47.9,13.2,70.3
	C36.1,298.3,47.2,316.7,61.2,333z"/>
<g>
	<line class="st0" x1="140.5" y1="143.4" x2="275.5" y2="278.3"/>
	<line class="st0" x1="140.5" y1="278.3" x2="275.5" y2="143.4"/>
</g>
</svg>
