<?xml version="1.0" encoding="utf-8"?>
<!-- Generator: Adobe Illustrator 22.1.0, SVG Export Plug-In . SVG Version: 6.00 Build 0)  -->
<svg version="1.1" id="Layer_1" xmlns="http://www.w3.org/2000/svg" xmlns:xlink="http://www.w3.org/1999/xlink" x="0px" y="0px"
	 viewBox="0 0 728.2 175.3" style="enable-background:new 0 0 728.2 175.3;" xml:space="preserve">
<style type="text/css">
	.logo-color{fill:#044031;}
	.st1{opacity:0.5;fill:#BBBDBF;}
	.st2{fill:url(#SVGID_1_);}
</style>
<g>
	<path class="logo-color" d="M171.6,82.7c-2-9.3-9.1-20-18.5-20l-20,4.5L132.4,81c1.3-1.2,3.3-1.5,4.2-1.5c5.1,0,7.8,4.2,7.8,9
		c0,32.5-27.1,58.8-60,57.2c-29.4-1.4-53.2-25.2-54.5-54.5c-1.5-32.9,24.7-60,57.2-60c18.5,0,24.8,8.8,37.2,8.8
		c9.8,0,18.2-4.9,21.8-11.6c0.2-0.4,0.1-0.9-0.2-1.2c-15.3-14.7-36-23.7-58.9-23.7C39.5,3.5,1,42.7,2.1,90.5
		c1.1,45.1,37.8,81.9,82.9,82.9c47.9,1.1,87-37.4,87-85C172.1,86.7,172,84.6,171.6,82.7z"/>
	<path class="st1" d="M150.5,65.2c-19.7,0-54.7,42-54.7,42l-54-27L87.7,143c0.4,0.5,1.1,0.6,1.6,0.1c5.7-6.6,39.8-45.4,44.7-50.9
		c7.1-8,13.8-14.9,23.9-14.9c7.1,0,10.9,2.2,13.8,5.5C170,75.9,167.3,65.2,150.5,65.2z"/>
	<linearGradient id="SVGID_1_" gradientUnits="userSpaceOnUse" x1="128.5407" y1="63.4379" x2="41.8533" y2="135.0679">
		<stop  offset="0" style="stop-color:#32B34A"/>
		<stop  offset="0.2471" style="stop-color:#2AA949"/>
		<stop  offset="0.6721" style="stop-color:#148D46"/>
		<stop  offset="0.9995" style="stop-color:#007344"/>
	</linearGradient>
	<path class="st2" d="M138.9,50.8c-15,0-25.4,9.4-34,19.1C100.8,74.4,90.2,87,88,89.5c-0.2,0.2-0.6,0.2-0.8,0
		c-1.2-1.4-4.6-5.6-6.3-7.4c-5.4-6-12.8-9.5-20.3-9.5c-6.3,0-12.8,2.5-18,6.9c-0.4,0.4-0.5,1-0.1,1.4l45.2,49.9
		c0.4,0.4,1.1,0.4,1.5,0c5.3-6.2,38.1-44.5,38.7-45.2c8.7-9.6,16.4-16.4,26.9-16.4c8.1,0,14.3,4.3,16.8,13.5
		C169.2,66.4,157,50.8,138.9,50.8z"/>
</g>
<g>
	<path class="logo-color" d="M204.7,145.2c0-1.3,0.2-2.6,0.6-3.8s0.9-2.2,1.6-3.2c0.7-0.9,1.5-1.7,2.5-2.4s2.1-1.1,3.3-1.3
		c-0.4-0.3-0.8-0.7-1.1-1.1c-0.4-0.4-0.5-1-0.5-1.7c0-1,0.4-1.8,1.1-2.3s1.7-0.8,2.8-0.8c1.1,0,2.1,0.3,2.7,0.8c0.7,0.5,1,1.3,1,2.4
		c0,0.7-0.2,1.3-0.5,1.7c-0.3,0.4-0.7,0.8-1.1,1.1c1.2,0.2,2.4,0.7,3.4,1.3c1,0.7,1.9,1.4,2.6,2.4c0.7,0.9,1.3,2,1.6,3.2
		s0.6,2.4,0.6,3.7c0,1.5-0.2,2.9-0.7,4.2c-0.5,1.3-1.1,2.4-2,3.3s-1.9,1.7-3.2,2.2s-2.7,0.8-4.3,0.8c-1.6,0-3.1-0.3-4.4-0.8
		c-1.3-0.5-2.3-1.3-3.2-2.2c-0.9-0.9-1.5-2-2-3.3C204.9,148.1,204.7,146.7,204.7,145.2z M222.6,145.2c0-0.9-0.1-1.8-0.4-2.6
		s-0.6-1.7-1.1-2.4c-0.5-0.7-1-1.4-1.7-1.9c-0.7-0.6-1.4-1-2.1-1.3c0.3,0.3,0.6,0.6,0.9,1c0.3,0.4,0.4,0.9,0.4,1.5
		c0,0.5-0.1,1-0.3,1.4c-0.2,0.4-0.5,0.7-0.8,1c-0.3,0.3-0.7,0.5-1.2,0.6c-0.5,0.1-0.9,0.2-1.4,0.2c-1.2,0-2.1-0.3-2.9-0.8
		s-1.1-1.3-1.1-2.3c0-0.7,0.2-1.3,0.5-1.7c0.3-0.4,0.7-0.8,1.1-1.1c-0.8,0.3-1.6,0.7-2.2,1.2c-0.7,0.5-1.2,1.2-1.7,1.9
		c-0.5,0.7-0.8,1.6-1,2.4c-0.2,0.9-0.4,1.8-0.4,2.7c0,1.1,0.2,2.2,0.5,3.2c0.4,1,0.9,1.9,1.5,2.7c0.7,0.8,1.5,1.3,2.4,1.8
		c0.9,0.4,2,0.7,3.1,0.7c1.2,0,2.2-0.2,3.2-0.7c0.9-0.4,1.8-1,2.4-1.8c0.7-0.8,1.2-1.6,1.6-2.6C222.4,147.5,222.6,146.4,222.6,145.2
		z M214.9,135.1c0.1-0.5,0.2-0.9,0.5-1.2c0.2-0.3,0.4-0.6,0.6-0.8c0.2-0.2,0.4-0.4,0.5-0.6c0.1-0.2,0.2-0.4,0.2-0.7
		c0-0.6-0.2-0.9-0.6-1.1c-0.4-0.2-0.8-0.2-1.2-0.2c-0.5,0-0.9,0.1-1.3,0.3c-0.4,0.2-0.6,0.5-0.6,1.1c0,0.3,0.1,0.5,0.2,0.7
		c0.1,0.2,0.3,0.4,0.5,0.6c0.2,0.2,0.4,0.5,0.6,0.8C214.6,134.3,214.7,134.7,214.9,135.1z M214.9,136.2c-0.1,0.5-0.3,0.9-0.5,1.2
		c-0.2,0.3-0.4,0.6-0.6,0.8c-0.2,0.2-0.4,0.4-0.5,0.6c-0.1,0.2-0.2,0.4-0.2,0.7c0,0.5,0.2,0.9,0.6,1.1s0.8,0.3,1.3,0.3
		c0.2,0,0.4,0,0.7,0c0.2,0,0.4-0.1,0.6-0.2c0.2-0.1,0.3-0.2,0.4-0.4c0.1-0.2,0.2-0.4,0.2-0.7c0-0.3-0.1-0.5-0.2-0.7
		c-0.1-0.2-0.3-0.4-0.5-0.6c-0.2-0.2-0.4-0.5-0.6-0.8C215.1,137.1,215,136.7,214.9,136.2z"/>
	<path class="logo-color" d="M235,134.2c0.9,0,1.8,0.1,2.4,0.4c0.7,0.3,1.3,0.7,1.7,1.2c0.4,0.5,0.8,1.2,1,1.9s0.3,1.5,0.3,2.4v8.9
		c0,1-0.2,1.9-0.5,2.8s-0.8,1.5-1.4,2.1c-0.6,0.6-1.2,1-2,1.3c-0.8,0.3-1.6,0.4-2.4,0.4c-2,0-3.5-0.5-4.6-1.5s-1.5-2.6-1.5-5h2.6
		c0,1.5,0.3,2.5,0.9,3.3c0.6,0.7,1.5,1.1,2.5,1.1c0.7,0,1.2-0.1,1.7-0.3c0.5-0.2,0.9-0.5,1.1-0.9c0.3-0.4,0.5-0.8,0.6-1.4
		c0.1-0.5,0.2-1.1,0.2-1.7v-8.6c0-0.6,0-1.1-0.1-1.7c-0.1-0.5-0.3-1-0.5-1.4c-0.2-0.4-0.6-0.7-0.9-0.9c-0.4-0.2-0.9-0.3-1.5-0.3
		c-0.6,0-1.1,0.1-1.5,0.3c-0.4,0.2-0.7,0.5-1,0.9c-0.2,0.4-0.4,0.9-0.5,1.4c-0.1,0.5-0.1,1.1-0.1,1.8h-2.6c0-1.2,0.1-2.2,0.4-3
		s0.7-1.5,1.2-2s1.1-0.9,1.8-1.1C233.2,134.3,234,134.2,235,134.2z"/>
	<path class="logo-color" d="M256.1,128.7v20.6c0,0.9-0.1,1.7-0.4,2.5c-0.2,0.8-0.6,1.5-1.1,2.1s-1.2,1-2,1.4c-0.8,0.3-1.8,0.5-3,0.5
		c-2.2,0-3.8-0.5-4.9-1.6s-1.6-2.8-1.6-5.3h2.6c0,1.5,0.3,2.7,1,3.5s1.7,1.2,3.1,1.2c1.3,0,2.3-0.3,3-0.9c0.6-0.6,1-1.7,1-3.2v-5.6
		c0-0.7-0.1-1.4-0.2-2s-0.3-1.1-0.5-1.5s-0.6-0.7-1-0.9c-0.4-0.2-1-0.3-1.7-0.3c-1.1,0-1.9,0.3-2.4,0.8c-0.5,0.5-0.8,1.3-0.8,2.2
		h-2.5c0-1.7,0.5-3,1.5-3.9c0.9-0.9,2.3-1.3,4-1.3c0.9,0,1.6,0.1,2.2,0.3c0.6,0.2,1.1,0.5,1.5,0.9v-9.4H256.1z"/>
	<path class="logo-color" d="M264.7,150c-1,0-1.9-0.2-2.7-0.5c-0.8-0.4-1.5-0.9-2-1.5c-0.6-0.7-1-1.5-1.3-2.4c-0.3-0.9-0.5-2-0.5-3.1
		c0-1.2,0.2-2.3,0.5-3.3s0.9-1.9,1.5-2.6c0.7-0.7,1.5-1.3,2.5-1.7c1-0.4,2.1-0.6,3.4-0.6s2.4,0.2,3.4,0.6s1.8,1,2.4,1.7
		c0.6,0.7,1.1,1.6,1.5,2.6c0.3,1,0.5,2.1,0.5,3.2c0,1-0.1,1.9-0.4,2.8c-0.3,0.9-0.7,1.7-1.3,2.5c-0.5,0.7-1.2,1.3-1.9,1.7
		c-0.8,0.4-1.6,0.7-2.5,0.7v-2.2c0.3,0,0.7-0.1,1.1-0.3c0.4-0.2,0.8-0.5,1.2-1c0.4-0.4,0.7-1,0.9-1.8c0.2-0.7,0.4-1.6,0.4-2.6
		c0-1-0.1-1.8-0.4-2.5c-0.3-0.7-0.6-1.3-1.1-1.8c-0.5-0.5-1-0.9-1.7-1.1s-1.4-0.4-2.1-0.4c-0.8,0-1.5,0.1-2.1,0.4
		c-0.7,0.3-1.2,0.6-1.7,1.1c-0.5,0.5-0.8,1.1-1.1,1.8c-0.3,0.7-0.4,1.6-0.4,2.5c0,1,0.1,1.9,0.4,2.6s0.6,1.3,1,1.8
		c0.4,0.4,0.8,0.8,1.2,1c0.4,0.2,0.8,0.3,1.2,0.3V150z"/>
	<path class="logo-color" d="M276.2,130.8c0-0.8,0.1-1.3,0.4-1.7c0.2-0.3,0.6-0.5,1.1-0.5c0.4,0,0.8,0.1,1.2,0.2c0.4,0.1,0.9,0.3,1.4,0.4
		c0.5,0.1,1,0.3,1.6,0.4c0.6,0.1,1.2,0.2,1.9,0.2c0.7,0,1.3-0.1,1.9-0.2c0.6-0.1,1.1-0.2,1.5-0.4c0.5-0.2,0.9-0.3,1.3-0.6v2.2
		c-0.3,0.2-0.8,0.4-1.2,0.5c-0.4,0.1-0.9,0.3-1.5,0.4c-0.6,0.1-1.3,0.1-2,0.1c-0.8,0-1.4,0-2.1-0.1c-0.6-0.1-1.1-0.2-1.5-0.3
		c-0.5-0.1-0.9-0.3-1.3-0.4v3.4c0,0.5,0,1-0.1,1.5s-0.1,1-0.2,1.4c0.5-0.6,1.1-1,1.8-1.5s1.7-0.6,2.8-0.6c0.9,0,1.8,0.1,2.5,0.3
		c0.8,0.2,1.4,0.6,2,1.1c0.6,0.5,1,1.2,1.3,2.1c0.3,0.9,0.5,2,0.5,3.3c0,1.1-0.1,2.1-0.4,3.1c-0.3,0.9-0.7,1.7-1.3,2.4
		c-0.6,0.7-1.3,1.2-2.1,1.6c-0.9,0.4-1.9,0.6-3,0.6c-1.3,0-2.4-0.2-3.2-0.7c-0.8-0.5-1.5-1.1-2-1.9c-0.5-0.8-0.8-1.7-1-2.8
		c-0.2-1.1-0.3-2.2-0.3-3.4V130.8z M282.6,137.6c-0.6,0-1.1,0.1-1.6,0.3c-0.5,0.2-0.9,0.6-1.3,1c-0.4,0.4-0.7,0.9-0.9,1.5
		c-0.2,0.6-0.3,1.2-0.4,1.9c0,0.7,0.1,1.4,0.3,2.1s0.4,1.2,0.7,1.8c0.3,0.5,0.8,0.9,1.3,1.2c0.5,0.3,1.2,0.5,1.9,0.5
		c1.4,0,2.4-0.5,3.1-1.5s1-2.3,1-3.9c0-1.7-0.4-2.9-1.2-3.6C284.9,138,283.9,137.6,282.6,137.6z"/>
	<path class="logo-color" d="M304.3,143.3c0,1-0.1,1.9-0.4,2.7c-0.3,0.8-0.7,1.5-1.3,2.1s-1.3,1-2.1,1.4s-1.7,0.5-2.7,0.5
		c-1.2,0-2.3-0.2-3.1-0.5c-0.8-0.3-1.5-0.8-1.9-1.4s-0.8-1.3-1-2.1s-0.3-1.8-0.3-2.8V129h2.5v13.9c0,1.6,0.3,2.9,0.9,3.7
		s1.5,1.3,2.9,1.3c1.3,0,2.2-0.4,2.9-1.1c0.7-0.7,1.1-1.8,1.1-3.1c0-0.7-0.1-1.3-0.3-1.8s-0.5-1-0.8-1.4s-0.6-0.8-1-1.2
		c-0.4-0.4-0.7-0.8-1-1.2c-0.3-0.4-0.6-0.9-0.8-1.5s-0.3-1.2-0.3-2h2.5c0,0.6,0.1,1.2,0.3,1.6s0.5,0.9,0.8,1.3
		c0.3,0.4,0.6,0.8,1,1.2c0.4,0.4,0.7,0.8,1,1.3c0.3,0.4,0.6,0.9,0.8,1.5C304.2,142,304.3,142.6,304.3,143.3z"/>
	<path class="logo-color" d="M319,134.1c0,1.1-0.4,2-1.1,2.8s-1.7,1.2-3,1.3c0.6,0.1,1.2,0.3,1.8,0.6c0.6,0.3,1.1,0.6,1.5,1
		c0.5,0.4,0.8,0.9,1.1,1.5c0.3,0.6,0.4,1.3,0.4,2c0,0.9-0.1,1.7-0.4,2.5c-0.3,0.8-0.7,1.5-1.3,2.1c-0.6,0.6-1.3,1-2.2,1.4
		c-0.9,0.3-1.9,0.5-3.1,0.5c-4.3,0-6.5-2.4-6.5-7.3h2.6c0,1.6,0.4,2.9,1.1,3.8c0.7,0.9,1.7,1.4,3,1.4c0.6,0,1.2-0.1,1.7-0.2
		c0.5-0.2,1-0.4,1.4-0.7s0.7-0.8,0.9-1.3c0.2-0.5,0.3-1.1,0.3-1.9c0-0.8-0.1-1.5-0.4-2s-0.7-1-1.1-1.3c-0.5-0.3-1-0.6-1.6-0.7
		c-0.6-0.1-1.1-0.2-1.7-0.2c-0.2,0-0.5,0-0.7,0s-0.4,0-0.6,0c-0.2,0-0.3,0-0.5,0v-2.3c0.1,0,0.3,0,0.5,0.1c0.2,0,0.3,0,0.6,0
		c0.2,0,0.5,0,0.8,0c0.4,0,0.8,0,1.3-0.1s0.9-0.2,1.3-0.4c0.4-0.2,0.8-0.5,1-0.8s0.4-0.7,0.4-1.2c0-0.5-0.1-0.9-0.3-1.2
		s-0.5-0.6-0.8-0.8c-0.3-0.2-0.7-0.3-1.1-0.4c-0.4-0.1-0.9-0.2-1.3-0.2c-0.6-0.1-1.2-0.1-1.7-0.2c-0.5-0.1-0.9-0.3-1.3-0.5
		c-0.3-0.2-0.6-0.6-0.8-1c-0.2-0.4-0.3-1-0.3-1.7h2.6c0,0.3,0.1,0.6,0.3,0.8c0.2,0.2,0.4,0.3,0.8,0.4c0.3,0.1,0.7,0.2,1.1,0.2
		c0.4,0,0.8,0.1,1.2,0.3c0.5,0.1,1,0.3,1.5,0.5s0.9,0.4,1.3,0.7c0.4,0.3,0.7,0.7,0.9,1.1C318.9,133,319,133.5,319,134.1z"/>
	<path class="logo-color" d="M329.1,134.2c0.9,0,1.8,0.1,2.4,0.4c0.7,0.3,1.3,0.7,1.7,1.2c0.4,0.5,0.8,1.2,1,1.9s0.3,1.5,0.3,2.4v8.9
		c0,1-0.2,1.9-0.5,2.8s-0.8,1.5-1.4,2.1c-0.6,0.6-1.2,1-2,1.3c-0.8,0.3-1.6,0.4-2.4,0.4c-2,0-3.5-0.5-4.6-1.5s-1.5-2.6-1.5-5h2.6
		c0,1.5,0.3,2.5,0.9,3.3c0.6,0.7,1.5,1.1,2.5,1.1c0.7,0,1.2-0.1,1.7-0.3c0.5-0.2,0.9-0.5,1.1-0.9c0.3-0.4,0.5-0.8,0.6-1.4
		c0.1-0.5,0.2-1.1,0.2-1.7v-8.6c0-0.6,0-1.1-0.1-1.7c-0.1-0.5-0.3-1-0.5-1.4c-0.2-0.4-0.6-0.7-0.9-0.9c-0.4-0.2-0.9-0.3-1.5-0.3
		c-0.6,0-1.1,0.1-1.5,0.3c-0.4,0.2-0.7,0.5-1,0.9c-0.2,0.4-0.4,0.9-0.5,1.4c-0.1,0.5-0.1,1.1-0.1,1.8h-2.6c0-1.2,0.1-2.2,0.4-3
		s0.7-1.5,1.2-2s1.1-0.9,1.8-1.1C327.4,134.3,328.2,134.2,329.1,134.2z"/>
	<path class="logo-color" d="M350.2,128.7v20.6c0,0.9-0.1,1.7-0.4,2.5c-0.2,0.8-0.6,1.5-1.1,2.1s-1.2,1-2,1.4c-0.8,0.3-1.8,0.5-3,0.5
		c-2.2,0-3.8-0.5-4.9-1.6s-1.6-2.8-1.6-5.3h2.6c0,1.5,0.3,2.7,1,3.5s1.7,1.2,3.1,1.2c1.3,0,2.3-0.3,3-0.9c0.6-0.6,1-1.7,1-3.2v-5.6
		c0-0.7-0.1-1.4-0.2-2s-0.3-1.1-0.5-1.5s-0.6-0.7-1-0.9c-0.4-0.2-1-0.3-1.7-0.3c-1.1,0-1.9,0.3-2.4,0.8c-0.5,0.5-0.8,1.3-0.8,2.2
		h-2.5c0-1.7,0.5-3,1.5-3.9c0.9-0.9,2.3-1.3,4-1.3c0.9,0,1.6,0.1,2.2,0.3c0.6,0.2,1.1,0.5,1.5,0.9v-9.4H350.2z"/>
	<path class="logo-color" d="M352.8,145.2c0-1.3,0.2-2.6,0.6-3.8s0.9-2.2,1.6-3.2c0.7-0.9,1.5-1.7,2.5-2.4c1-0.6,2.1-1.1,3.3-1.3
		c-0.4-0.3-0.8-0.7-1.1-1.1s-0.5-1-0.5-1.7c0-1,0.4-1.8,1.1-2.3s1.7-0.8,2.8-0.8s2.1,0.3,2.7,0.8c0.7,0.5,1,1.3,1,2.4
		c0,0.7-0.2,1.3-0.5,1.7c-0.3,0.4-0.7,0.8-1.1,1.1c1.2,0.2,2.4,0.7,3.4,1.3c1,0.7,1.9,1.4,2.6,2.4c0.7,0.9,1.3,2,1.7,3.2
		c0.4,1.2,0.6,2.4,0.6,3.7c0,1.5-0.2,2.9-0.7,4.2c-0.5,1.3-1.1,2.4-2,3.3s-1.9,1.7-3.2,2.2c-1.3,0.5-2.7,0.8-4.3,0.8
		c-1.6,0-3.1-0.3-4.4-0.8c-1.3-0.5-2.3-1.3-3.2-2.2c-0.9-0.9-1.5-2-2-3.3C353,148.1,352.8,146.7,352.8,145.2z M370.8,145.2
		c0-0.9-0.1-1.8-0.4-2.6s-0.6-1.7-1.1-2.4c-0.5-0.7-1-1.4-1.7-1.9c-0.7-0.6-1.4-1-2.1-1.3c0.3,0.3,0.6,0.6,0.9,1
		c0.3,0.4,0.4,0.9,0.4,1.5c0,0.5-0.1,1-0.3,1.4c-0.2,0.4-0.5,0.7-0.8,1c-0.3,0.3-0.7,0.5-1.2,0.6c-0.5,0.1-0.9,0.2-1.4,0.2
		c-1.2,0-2.1-0.3-2.9-0.8s-1.1-1.3-1.1-2.3c0-0.7,0.2-1.3,0.5-1.7c0.3-0.4,0.7-0.8,1.1-1.1c-0.8,0.3-1.6,0.7-2.2,1.2
		c-0.7,0.5-1.2,1.2-1.7,1.9c-0.5,0.7-0.8,1.6-1,2.4c-0.2,0.9-0.4,1.8-0.4,2.7c0,1.1,0.2,2.2,0.5,3.2c0.4,1,0.9,1.9,1.5,2.7
		s1.5,1.3,2.4,1.8c0.9,0.4,2,0.7,3.1,0.7c1.2,0,2.2-0.2,3.2-0.7c0.9-0.4,1.8-1,2.4-1.8c0.7-0.8,1.2-1.6,1.6-2.6
		S370.8,146.4,370.8,145.2z M363,135.1c0.1-0.5,0.2-0.9,0.5-1.2c0.2-0.3,0.4-0.6,0.6-0.8c0.2-0.2,0.4-0.4,0.5-0.6
		c0.1-0.2,0.2-0.4,0.2-0.7c0-0.6-0.2-0.9-0.6-1.1c-0.4-0.2-0.8-0.2-1.2-0.2c-0.5,0-0.9,0.1-1.3,0.3c-0.4,0.2-0.6,0.5-0.6,1.1
		c0,0.3,0.1,0.5,0.2,0.7c0.2,0.2,0.3,0.4,0.5,0.6c0.2,0.2,0.4,0.5,0.6,0.8C362.7,134.3,362.9,134.7,363,135.1z M363,136.2
		c-0.1,0.5-0.3,0.9-0.5,1.2c-0.2,0.3-0.4,0.6-0.6,0.8c-0.2,0.2-0.4,0.4-0.5,0.6c-0.2,0.2-0.2,0.4-0.2,0.7c0,0.5,0.2,0.9,0.6,1.1
		s0.8,0.3,1.3,0.3c0.2,0,0.4,0,0.7,0c0.2,0,0.4-0.1,0.6-0.2c0.2-0.1,0.3-0.2,0.4-0.4s0.2-0.4,0.2-0.7c0-0.3-0.1-0.5-0.2-0.7
		c-0.1-0.2-0.3-0.4-0.5-0.6c-0.2-0.2-0.4-0.5-0.6-0.8C363.3,137.1,363.1,136.7,363,136.2z"/>
	<path class="logo-color" d="M382.1,150c-1,0-1.9-0.2-2.7-0.5c-0.8-0.4-1.5-0.9-2-1.5c-0.5-0.7-1-1.5-1.3-2.4s-0.5-2-0.5-3.1
		c0-1.2,0.2-2.3,0.5-3.3c0.3-1,0.9-1.9,1.5-2.6s1.5-1.3,2.5-1.7c1-0.4,2.1-0.6,3.4-0.6c1.3,0,2.4,0.2,3.4,0.6c1,0.4,1.8,1,2.4,1.7
		s1.1,1.6,1.5,2.6c0.3,1,0.5,2.1,0.5,3.2c0,1-0.2,1.9-0.4,2.8c-0.3,0.9-0.7,1.7-1.3,2.5c-0.5,0.7-1.2,1.3-2,1.7s-1.6,0.7-2.5,0.7
		v-2.2c0.3,0,0.7-0.1,1.1-0.3c0.4-0.2,0.8-0.5,1.2-1c0.4-0.4,0.7-1,0.9-1.8c0.2-0.7,0.4-1.6,0.4-2.6c0-1-0.1-1.8-0.4-2.5
		s-0.6-1.3-1.1-1.8s-1-0.9-1.7-1.1c-0.6-0.2-1.4-0.4-2.1-0.4c-0.8,0-1.5,0.1-2.1,0.4s-1.2,0.6-1.7,1.1c-0.5,0.5-0.8,1.1-1.1,1.8
		c-0.3,0.7-0.4,1.6-0.4,2.5c0,1,0.1,1.9,0.4,2.6s0.6,1.3,1,1.8c0.4,0.4,0.8,0.8,1.2,1c0.4,0.2,0.8,0.3,1.2,0.3V150z"/>
	<path class="logo-color" d="M404.9,140c0.1-0.8,0.2-1.6,0.4-2.3c0.2-0.7,0.5-1.3,1-1.9c0.4-0.5,1-1,1.6-1.3c0.7-0.3,1.4-0.5,2.4-0.5
		c1.1,0,2,0.2,2.7,0.7c0.7,0.5,1.3,1.1,1.8,1.8c0.5,0.8,0.8,1.6,1,2.6c0.2,1,0.3,2,0.3,3c0,1.2-0.2,2.3-0.5,3.3
		c-0.3,1-0.8,1.8-1.3,2.4c-0.5,0.7-1.2,1.2-1.9,1.5c-0.7,0.3-1.5,0.5-2.2,0.5v-2.5c0.5,0,0.9-0.1,1.3-0.4c0.4-0.3,0.7-0.7,1-1.1
		c0.3-0.5,0.5-1,0.7-1.7c0.2-0.7,0.3-1.4,0.3-2.1c0-1.9-0.3-3.3-0.8-4.3c-0.5-1-1.3-1.5-2.4-1.5c-0.9,0-1.6,0.2-2.1,0.7
		c-0.5,0.5-0.8,1.1-1.1,1.8c-0.2,0.7-0.4,1.6-0.4,2.5c0,0.9-0.1,1.8-0.1,2.7h-3.4c0-0.9,0-1.7-0.1-2.7s-0.2-1.7-0.5-2.5
		s-0.6-1.3-1.1-1.8c-0.5-0.5-1.1-0.7-1.9-0.7c-1.1,0-1.9,0.4-2.5,1.3c-0.6,0.9-0.9,2.4-0.9,4.4c0,1.2,0.1,2.2,0.4,2.9s0.6,1.3,1,1.7
		c0.4,0.4,0.8,0.7,1.3,0.8c0.5,0.1,0.9,0.2,1.2,0.2l0.1,2.3c-0.9,0-1.8-0.1-2.6-0.4c-0.8-0.3-1.5-0.8-2.1-1.4s-1.1-1.4-1.5-2.4
		s-0.6-2.2-0.6-3.6v-0.4c0-1,0.1-2.1,0.2-3.2c0.1-1.2,0.4-2.3,0.8-3.3c0.4-1.1,1.1-2,2-2.8c0.9-0.8,2.1-1.4,3.7-1.6
		c1-0.2,1.9-0.3,2.8-0.4c0.8-0.1,1.6-0.2,2.2-0.3c0.6-0.1,1.1-0.3,1.4-0.5s0.5-0.5,0.5-1h2.9c0,0.7-0.1,1.3-0.3,1.7
		c-0.2,0.5-0.5,0.8-1,1.1c-0.5,0.3-1.2,0.5-2,0.7s-1.9,0.3-3.2,0.5c-1.2,0.1-2.2,0.3-3.1,0.5c-0.8,0.2-1.5,0.6-2.1,1.1
		c0.5-0.1,1-0.1,1.5-0.1c1,0,1.8,0.2,2.5,0.5c0.6,0.3,1.2,0.7,1.5,1.3c0.4,0.5,0.7,1.2,0.8,1.9C404.7,138.5,404.9,139.2,404.9,140z"
		/>
	<path class="logo-color" d="M425.8,134.2c0.9,0,1.8,0.1,2.4,0.4c0.7,0.3,1.3,0.7,1.7,1.2c0.4,0.5,0.8,1.2,1,1.9s0.3,1.5,0.3,2.4v8.9
		c0,1-0.2,1.9-0.5,2.8s-0.8,1.5-1.4,2.1c-0.6,0.6-1.2,1-2,1.3c-0.8,0.3-1.6,0.4-2.4,0.4c-2,0-3.5-0.5-4.6-1.5s-1.5-2.6-1.5-5h2.6
		c0,1.5,0.3,2.5,0.9,3.3c0.6,0.7,1.5,1.1,2.5,1.1c0.7,0,1.2-0.1,1.7-0.3c0.5-0.2,0.8-0.5,1.1-0.9s0.5-0.8,0.6-1.4
		c0.1-0.5,0.2-1.1,0.2-1.7v-8.6c0-0.6,0-1.1-0.1-1.7c-0.1-0.5-0.3-1-0.5-1.4c-0.2-0.4-0.6-0.7-0.9-0.9c-0.4-0.2-0.9-0.3-1.5-0.3
		c-0.6,0-1.1,0.1-1.5,0.3c-0.4,0.2-0.7,0.5-1,0.9c-0.2,0.4-0.4,0.9-0.5,1.4c-0.1,0.5-0.1,1.1-0.1,1.8h-2.6c0-1.2,0.1-2.2,0.4-3
		s0.7-1.5,1.2-2s1.1-0.9,1.8-1.1C424,134.3,424.9,134.2,425.8,134.2z"/>
	<path class="logo-color" d="M434.3,143.4c0-0.9,0.1-1.6,0.4-2.3c0.3-0.7,0.7-1.2,1.1-1.8c0.4-0.5,0.9-1,1.4-1.4s1-0.8,1.4-1.2
		c0.4-0.4,0.8-0.7,1.1-1.1c0.3-0.4,0.4-0.8,0.4-1.2c0-0.5,0-0.9,0-1.2c0-0.3-0.2-0.6-0.5-0.8l-2.1-1.2v4.1h-2.5v-5.3
		c0-0.3,0.1-0.6,0.2-0.8c0.1-0.2,0.3-0.4,0.5-0.5c0.2-0.1,0.5-0.2,0.7-0.1s0.5,0.1,0.8,0.2l4.1,2.2c0.3,0.1,0.5,0.3,0.6,0.4
		s0.3,0.3,0.4,0.6s0.1,0.5,0.2,0.9c0,0.3,0,0.8,0,1.3c0,0.5,0.1,0.9,0.4,1.3c0.3,0.4,0.6,0.8,1,1.1c0.4,0.4,0.8,0.8,1.3,1.2
		c0.5,0.4,0.9,0.9,1.3,1.4s0.7,1.1,1,1.8c0.3,0.7,0.4,1.4,0.4,2.3c0,0.9-0.2,1.8-0.5,2.6s-0.8,1.5-1.4,2.1s-1.3,1-2.2,1.4
		s-1.8,0.5-2.8,0.5s-2-0.1-2.8-0.4s-1.6-0.7-2.2-1.3c-0.6-0.6-1.1-1.2-1.4-2.1C434.5,145.4,434.3,144.4,434.3,143.4z M441.5,136.6
		c-0.1,0.4-0.2,0.8-0.5,1.1c-0.3,0.3-0.6,0.6-0.9,0.9c-0.3,0.3-0.7,0.6-1.1,0.9c-0.4,0.3-0.7,0.6-1,1c-0.3,0.4-0.6,0.8-0.8,1.2
		c-0.2,0.5-0.3,1-0.3,1.6c0,0.7,0.1,1.3,0.3,1.8c0.2,0.5,0.5,1,0.9,1.4c0.4,0.4,0.9,0.7,1.4,0.9c0.5,0.2,1.1,0.3,1.7,0.3
		c1.3,0,2.4-0.4,3.2-1.1c0.8-0.7,1.2-1.9,1.2-3.4c0-0.6-0.1-1.1-0.3-1.5c-0.2-0.4-0.4-0.8-0.7-1.2c-0.3-0.4-0.6-0.7-0.9-1
		c-0.3-0.3-0.7-0.6-1-0.9c-0.3-0.3-0.6-0.6-0.8-0.9C441.7,137.4,441.5,137.1,441.5,136.6z"/>
	<path class="logo-color" d="M457.4,150c-1,0-1.9-0.2-2.7-0.5c-0.8-0.4-1.5-0.9-2-1.5c-0.6-0.7-1-1.5-1.3-2.4c-0.3-0.9-0.5-2-0.5-3.1
		c0-1.2,0.2-2.3,0.5-3.3c0.4-1,0.9-1.9,1.5-2.6c0.7-0.7,1.5-1.3,2.5-1.7s2.1-0.6,3.4-0.6c1.3,0,2.4,0.2,3.4,0.6c1,0.4,1.8,1,2.4,1.7
		c0.6,0.7,1.1,1.6,1.5,2.6s0.5,2.1,0.5,3.2c0,1-0.1,1.9-0.5,2.8c-0.3,0.9-0.7,1.7-1.3,2.5c-0.5,0.7-1.2,1.3-1.9,1.7
		c-0.8,0.4-1.6,0.7-2.5,0.7v-2.2c0.3,0,0.7-0.1,1.1-0.3c0.4-0.2,0.8-0.5,1.2-1c0.4-0.4,0.7-1,0.9-1.8c0.2-0.7,0.4-1.6,0.4-2.6
		c0-1-0.1-1.8-0.4-2.5c-0.3-0.7-0.6-1.3-1.1-1.8c-0.5-0.5-1-0.9-1.7-1.1c-0.7-0.2-1.4-0.4-2.1-0.4c-0.8,0-1.5,0.1-2.1,0.4
		c-0.7,0.3-1.2,0.6-1.7,1.1c-0.5,0.5-0.8,1.1-1.1,1.8s-0.4,1.6-0.4,2.5c0,1,0.1,1.9,0.4,2.6s0.6,1.3,1,1.8c0.4,0.4,0.8,0.8,1.2,1
		c0.4,0.2,0.8,0.3,1.2,0.3V150z"/>
	<path class="logo-color" d="M481.6,143.3c0,1-0.1,1.9-0.5,2.7c-0.3,0.8-0.7,1.5-1.3,2.1s-1.3,1-2.1,1.4c-0.8,0.3-1.7,0.5-2.7,0.5
		c-1.2,0-2.3-0.2-3.1-0.5c-0.8-0.3-1.5-0.8-1.9-1.4c-0.5-0.6-0.8-1.3-1-2.1s-0.3-1.8-0.3-2.8V129h2.5v13.9c0,1.6,0.3,2.9,0.9,3.7
		s1.5,1.3,2.9,1.3c1.3,0,2.2-0.4,2.9-1.1c0.7-0.7,1.1-1.8,1.1-3.1c0-0.7-0.1-1.3-0.3-1.8c-0.2-0.5-0.5-1-0.8-1.4
		c-0.3-0.4-0.6-0.8-1-1.2c-0.4-0.4-0.7-0.8-1-1.2c-0.3-0.4-0.6-0.9-0.8-1.5c-0.2-0.6-0.3-1.2-0.3-2h2.5c0,0.6,0.1,1.2,0.3,1.6
		s0.5,0.9,0.8,1.3c0.3,0.4,0.6,0.8,1,1.2c0.4,0.4,0.7,0.8,1,1.3c0.3,0.4,0.6,0.9,0.8,1.5C481.5,142,481.6,142.6,481.6,143.3z"/>
	<path class="logo-color" d="M491.8,143.9c0-1.3,0.1-2.5,0.3-3.5c0.2-1,0.4-1.9,0.7-2.6c0.3-0.8,0.6-1.5,1-2.1l2.2,0.9
		c-0.3,0.5-0.6,1.1-0.8,1.8c-0.2,0.6-0.4,1.4-0.6,2.3c-0.2,0.9-0.3,2-0.3,3.3c0,1.3,0.1,2.5,0.4,3.7c0.2,1.2,0.6,2.2,1,3
		c0.5,0.9,1,1.6,1.7,2.1c0.7,0.5,1.5,0.8,2.4,0.8c0.7,0,1.4-0.1,1.9-0.4s1-0.6,1.3-0.9c0.4-0.4,0.6-0.8,0.8-1.4s0.3-1.1,0.3-1.6
		c0-0.8-0.2-1.5-0.5-2s-0.7-0.9-1.2-1.2c-0.5-0.3-1-0.5-1.6-0.6c-0.6-0.1-1.1-0.2-1.5-0.2c-0.2,0-0.4,0-0.6,0c-0.1,0-0.2,0-0.3,0
		c-0.1,0-0.1,0-0.2,0v-2.5c0.1,0,0.2,0,0.4,0c0.1,0,0.2,0,0.4,0c0.1,0,0.3,0,0.4,0c0.4,0,0.9,0,1.4-0.1c0.5-0.1,1-0.2,1.4-0.4
		c0.4-0.2,0.8-0.5,1.1-0.8c0.3-0.3,0.5-0.8,0.5-1.3c0-0.7-0.2-1.2-0.7-1.6c-0.5-0.4-1.2-0.7-2.2-0.9c-0.6-0.1-1.1-0.3-1.4-0.5
		c-0.4-0.2-0.7-0.4-0.9-0.7c-0.2-0.3-0.4-0.6-0.5-1c-0.1-0.4-0.1-0.9-0.1-1.4h2.8c0,0.3,0.1,0.6,0.2,0.7c0.1,0.2,0.3,0.3,0.5,0.4
		c0.2,0.1,0.5,0.2,0.9,0.3c0.4,0.1,0.8,0.2,1.3,0.4c1,0.4,1.6,0.9,2.1,1.6c0.4,0.7,0.6,1.4,0.6,2.3c0,1.2-0.4,2.1-1.1,2.8
		c-0.8,0.7-1.8,1.1-3.1,1.3c0.6,0.1,1.2,0.3,1.8,0.6s1.1,0.6,1.5,1c0.5,0.4,0.8,0.9,1.1,1.5c0.3,0.6,0.4,1.2,0.4,2
		c0,0.9-0.2,1.7-0.5,2.5c-0.3,0.8-0.8,1.5-1.4,2.1s-1.4,1.1-2.3,1.4c-0.9,0.4-1.9,0.5-3,0.5c-1,0-1.9-0.2-2.7-0.5
		c-0.8-0.3-1.5-0.8-2-1.4s-1.1-1.3-1.5-2c-0.4-0.8-0.7-1.6-0.9-2.5c-0.2-0.9-0.4-1.8-0.5-2.7C491.9,145.7,491.8,144.8,491.8,143.9z"
		/>
	<path class="logo-color" d="M516.2,134.2c0.9,0,1.8,0.1,2.4,0.4c0.7,0.3,1.3,0.7,1.7,1.2c0.4,0.5,0.8,1.2,1,1.9c0.2,0.7,0.3,1.5,0.3,2.4
		v8.9c0,1-0.2,1.9-0.5,2.8s-0.8,1.5-1.4,2.1c-0.6,0.6-1.2,1-2,1.3c-0.8,0.3-1.6,0.4-2.4,0.4c-2,0-3.5-0.5-4.6-1.5
		c-1-1-1.5-2.6-1.5-5h2.6c0,1.5,0.3,2.5,0.9,3.3c0.6,0.7,1.5,1.1,2.5,1.1c0.7,0,1.2-0.1,1.7-0.3c0.5-0.2,0.9-0.5,1.1-0.9
		c0.3-0.4,0.5-0.8,0.6-1.4s0.2-1.1,0.2-1.7v-8.6c0-0.6,0-1.1-0.1-1.7c-0.1-0.5-0.3-1-0.5-1.4c-0.2-0.4-0.6-0.7-0.9-0.9
		c-0.4-0.2-0.9-0.3-1.5-0.3c-0.6,0-1.1,0.1-1.5,0.3c-0.4,0.2-0.7,0.5-1,0.9s-0.4,0.9-0.5,1.4c-0.1,0.5-0.2,1.1-0.2,1.8h-2.6
		c0-1.2,0.1-2.2,0.4-3c0.3-0.8,0.7-1.5,1.2-2s1.1-0.9,1.8-1.1C514.5,134.3,515.3,134.2,516.2,134.2z"/>
	<path class="logo-color" d="M524.3,130.8c0-0.8,0.1-1.3,0.4-1.7c0.2-0.3,0.6-0.5,1.1-0.5c0.4,0,0.8,0.1,1.2,0.2c0.4,0.1,0.9,0.3,1.4,0.4
		c0.5,0.1,1,0.3,1.6,0.4c0.6,0.1,1.2,0.2,1.9,0.2c0.7,0,1.3-0.1,1.9-0.2c0.6-0.1,1.1-0.2,1.5-0.4c0.5-0.2,0.9-0.3,1.3-0.6v2.2
		c-0.3,0.2-0.8,0.4-1.2,0.5c-0.4,0.1-0.9,0.3-1.5,0.4c-0.6,0.1-1.3,0.1-2,0.1c-0.8,0-1.4,0-2.1-0.1c-0.6-0.1-1.1-0.2-1.5-0.3
		c-0.5-0.1-0.9-0.3-1.3-0.4v3.4c0,0.5,0,1-0.1,1.5s-0.1,1-0.2,1.4c0.5-0.6,1.1-1,1.8-1.5s1.7-0.6,2.8-0.6c0.9,0,1.8,0.1,2.5,0.3
		s1.4,0.6,2,1.1c0.6,0.5,1,1.2,1.3,2.1c0.3,0.9,0.5,2,0.5,3.3c0,1.1-0.1,2.1-0.4,3.1c-0.3,0.9-0.7,1.7-1.3,2.4s-1.3,1.2-2.1,1.6
		c-0.9,0.4-1.9,0.6-3,0.6c-1.3,0-2.4-0.2-3.2-0.7c-0.8-0.5-1.5-1.1-2-1.9c-0.5-0.8-0.8-1.7-1-2.8c-0.2-1.1-0.3-2.2-0.3-3.4V130.8z
		 M530.7,137.6c-0.6,0-1.1,0.1-1.6,0.3c-0.5,0.2-0.9,0.6-1.3,1s-0.7,0.9-0.9,1.5c-0.2,0.6-0.3,1.2-0.4,1.9c0,0.7,0.1,1.4,0.3,2.1
		c0.2,0.7,0.4,1.2,0.7,1.8c0.3,0.5,0.8,0.9,1.3,1.2c0.5,0.3,1.2,0.5,1.9,0.5c1.4,0,2.4-0.5,3.1-1.5c0.7-1,1-2.3,1-3.9
		c0-1.7-0.4-2.9-1.2-3.6C533,138,532,137.6,530.7,137.6z"/>
	<path class="logo-color" d="M539.9,145.2c0-1.3,0.2-2.6,0.6-3.8c0.4-1.2,0.9-2.2,1.6-3.2c0.7-0.9,1.5-1.7,2.5-2.4s2.1-1.1,3.3-1.3
		c-0.4-0.3-0.8-0.7-1.1-1.1s-0.5-1-0.5-1.7c0-1,0.4-1.8,1.1-2.3s1.7-0.8,2.8-0.8s2.1,0.3,2.7,0.8c0.7,0.5,1,1.3,1,2.4
		c0,0.7-0.2,1.3-0.5,1.7c-0.3,0.4-0.7,0.8-1.1,1.1c1.2,0.2,2.4,0.7,3.4,1.3c1,0.7,1.9,1.4,2.6,2.4c0.7,0.9,1.3,2,1.7,3.2
		c0.4,1.2,0.6,2.4,0.6,3.7c0,1.5-0.2,2.9-0.7,4.2c-0.5,1.3-1.1,2.4-2,3.3s-1.9,1.7-3.2,2.2c-1.3,0.5-2.7,0.8-4.3,0.8
		c-1.6,0-3.1-0.3-4.4-0.8c-1.3-0.5-2.3-1.3-3.2-2.2c-0.9-0.9-1.5-2-2-3.3C540.1,148.1,539.9,146.7,539.9,145.2z M557.9,145.2
		c0-0.9-0.1-1.8-0.4-2.6s-0.6-1.7-1.1-2.4c-0.5-0.7-1-1.4-1.7-1.9c-0.7-0.6-1.4-1-2.1-1.3c0.3,0.3,0.6,0.6,0.9,1
		c0.3,0.4,0.4,0.9,0.4,1.5c0,0.5-0.1,1-0.3,1.4c-0.2,0.4-0.5,0.7-0.8,1c-0.3,0.3-0.7,0.5-1.2,0.6c-0.5,0.1-0.9,0.2-1.4,0.2
		c-1.2,0-2.1-0.3-2.9-0.8s-1.1-1.3-1.1-2.3c0-0.7,0.2-1.3,0.5-1.7c0.3-0.4,0.7-0.8,1.1-1.1c-0.8,0.3-1.6,0.7-2.2,1.2
		c-0.7,0.5-1.2,1.2-1.7,1.9c-0.5,0.7-0.8,1.6-1,2.4c-0.2,0.9-0.4,1.8-0.4,2.7c0,1.1,0.2,2.2,0.5,3.2c0.4,1,0.9,1.9,1.5,2.7
		s1.5,1.3,2.4,1.8c0.9,0.4,2,0.7,3.1,0.7c1.2,0,2.2-0.2,3.2-0.7c0.9-0.4,1.8-1,2.4-1.8c0.7-0.8,1.2-1.6,1.6-2.6
		S557.9,146.4,557.9,145.2z M550.1,135.1c0.1-0.5,0.2-0.9,0.5-1.2c0.2-0.3,0.4-0.6,0.6-0.8c0.2-0.2,0.4-0.4,0.5-0.6
		c0.1-0.2,0.2-0.4,0.2-0.7c0-0.6-0.2-0.9-0.6-1.1c-0.4-0.2-0.8-0.2-1.2-0.2c-0.5,0-0.9,0.1-1.3,0.3c-0.4,0.2-0.6,0.5-0.6,1.1
		c0,0.3,0.1,0.5,0.2,0.7c0.2,0.2,0.3,0.4,0.5,0.6c0.2,0.2,0.4,0.5,0.6,0.8C549.8,134.3,550,134.7,550.1,135.1z M550.1,136.2
		c-0.1,0.5-0.3,0.9-0.5,1.2c-0.2,0.3-0.4,0.6-0.6,0.8c-0.2,0.2-0.4,0.4-0.5,0.6c-0.2,0.2-0.2,0.4-0.2,0.7c0,0.5,0.2,0.9,0.6,1.1
		s0.8,0.3,1.3,0.3c0.2,0,0.4,0,0.7,0c0.2,0,0.4-0.1,0.6-0.2c0.2-0.1,0.3-0.2,0.4-0.4s0.2-0.4,0.2-0.7c0-0.3-0.1-0.5-0.2-0.7
		c-0.1-0.2-0.3-0.4-0.5-0.6c-0.2-0.2-0.4-0.5-0.6-0.8C550.4,137.1,550.2,136.7,550.1,136.2z"/>
	<path class="logo-color" d="M574.2,140c0.1-0.8,0.2-1.6,0.4-2.3c0.2-0.7,0.5-1.3,1-1.9c0.4-0.5,1-1,1.6-1.3c0.6-0.3,1.4-0.5,2.4-0.5
		c1.1,0,2,0.2,2.7,0.7c0.7,0.5,1.3,1.1,1.8,1.8c0.4,0.8,0.8,1.6,1,2.6s0.3,2,0.3,3c0,1.2-0.2,2.3-0.5,3.3c-0.3,1-0.8,1.8-1.3,2.4
		c-0.5,0.7-1.2,1.2-1.9,1.5s-1.5,0.5-2.2,0.5v-2.5c0.5,0,0.9-0.1,1.3-0.4c0.4-0.3,0.7-0.7,1-1.1c0.3-0.5,0.5-1,0.7-1.7
		c0.2-0.7,0.3-1.4,0.3-2.1c0-1.9-0.3-3.3-0.8-4.3s-1.3-1.5-2.4-1.5c-0.9,0-1.6,0.2-2.1,0.7c-0.5,0.5-0.8,1.1-1.1,1.8
		s-0.4,1.6-0.4,2.5c0,0.9-0.1,1.8-0.1,2.7h-3.4c0-0.9,0-1.7-0.1-2.7s-0.2-1.7-0.5-2.5c-0.3-0.7-0.6-1.3-1.1-1.8s-1.1-0.7-1.9-0.7
		c-1.1,0-1.9,0.4-2.5,1.3c-0.6,0.9-0.9,2.4-0.9,4.4c0,1.2,0.1,2.2,0.4,2.9c0.3,0.7,0.6,1.3,1,1.7c0.4,0.4,0.8,0.7,1.3,0.8
		c0.5,0.1,0.9,0.2,1.2,0.2l0.1,2.3c-0.9,0-1.8-0.1-2.6-0.4c-0.8-0.3-1.5-0.8-2.1-1.4c-0.6-0.6-1.1-1.4-1.5-2.4
		c-0.4-1-0.6-2.2-0.6-3.6v-0.4c0-1,0.1-2.1,0.2-3.2c0.1-1.2,0.4-2.3,0.8-3.3c0.4-1.1,1.1-2,2-2.8c0.9-0.8,2.1-1.4,3.7-1.6
		c1-0.2,1.9-0.3,2.8-0.4s1.6-0.2,2.2-0.3s1.1-0.3,1.4-0.5s0.5-0.5,0.5-1h2.8c0,0.7-0.1,1.3-0.3,1.7c-0.2,0.5-0.5,0.8-1,1.1
		c-0.5,0.3-1.2,0.5-2,0.7c-0.8,0.2-1.9,0.3-3.2,0.5c-1.2,0.1-2.2,0.3-3.1,0.5c-0.8,0.2-1.5,0.6-2.1,1.1c0.5-0.1,1-0.1,1.5-0.1
		c1,0,1.8,0.2,2.5,0.5c0.6,0.3,1.1,0.7,1.5,1.3s0.7,1.2,0.8,1.9C574,138.5,574.2,139.2,574.2,140z"/>
	<path class="logo-color" d="M594.1,150c-1,0-1.9-0.2-2.7-0.5c-0.8-0.4-1.5-0.9-2-1.5c-0.6-0.7-1-1.5-1.3-2.4c-0.3-0.9-0.5-2-0.5-3.1
		c0-1.2,0.2-2.3,0.5-3.3c0.4-1,0.9-1.9,1.5-2.6c0.7-0.7,1.5-1.3,2.5-1.7s2.1-0.6,3.4-0.6c1.3,0,2.4,0.2,3.4,0.6c1,0.4,1.8,1,2.4,1.7
		c0.6,0.7,1.1,1.6,1.5,2.6s0.5,2.1,0.5,3.2c0,1-0.1,1.9-0.5,2.8c-0.3,0.9-0.7,1.7-1.3,2.5c-0.5,0.7-1.2,1.3-1.9,1.7
		c-0.8,0.4-1.6,0.7-2.5,0.7v-2.2c0.3,0,0.7-0.1,1.1-0.3c0.4-0.2,0.8-0.5,1.2-1c0.4-0.4,0.7-1,0.9-1.8c0.2-0.7,0.4-1.6,0.4-2.6
		c0-1-0.1-1.8-0.4-2.5c-0.3-0.7-0.6-1.3-1.1-1.8c-0.5-0.5-1-0.9-1.7-1.1c-0.7-0.2-1.4-0.4-2.1-0.4c-0.8,0-1.5,0.1-2.1,0.4
		c-0.7,0.3-1.2,0.6-1.7,1.1c-0.5,0.5-0.8,1.1-1.1,1.8s-0.4,1.6-0.4,2.5c0,1,0.1,1.9,0.4,2.6s0.6,1.3,1,1.8c0.4,0.4,0.8,0.8,1.2,1
		c0.4,0.2,0.8,0.3,1.2,0.3V150z"/>
</g>
<path class="logo-color" d="M477.1,96.4c-6.8,0-11.7-3.2-11.7-8.3v-6.5h13c6.5,0,10.4,3.2,10.4,7.2C488.8,93.7,484.8,96.4,477.1,96.4z
	 M231.3,97c-7.7,0-11.7-3.3-11.7-8.1c0-4.1,3.9-7.8,11.7-7.8s11.7,3.7,11.7,7.8C243,93.7,239,97,231.3,97z M477.1,112.9
	c20.8,0,31.2-9.7,31.2-24.3c0-13.4-10.1-22.2-27.7-22.2h-15.2v-3.6c0-4.1,2.3-6.2,6.6-6.2h18.6c6.3,0,11.4-5.1,11.4-11.4v-3
	c0-0.6-0.4-1-1-1h-30.4c-15.3,0-24.6,8.9-24.6,23.2v23.1C445.9,100.8,455.4,112.9,477.1,112.9z M271.8,111.4h17.5c0.6,0,1-0.4,1-1
	V90.9c0-5.4,3.3-8.4,7.9-8.4c4.7,0,7.9,3.1,7.9,8.4v19.6c0,0.6,0.4,1,1,1h17.5c0.6,0,1-0.4,1-1V90.9c0-5.1,3.2-8.4,7.9-8.4
	c4.6,0,7.9,3.3,7.9,8.4v19.6c0,0.6,0.4,1,1,1h17.5c0.6,0,1-0.4,1-1V89.3c0-13.4-7.9-23.3-25.2-23.3c-6.9,0-15.5,2.1-19.8,9.7
	c-3.7-8.1-10.6-9.7-16.2-9.7c-3.7,0-9,1.1-11.9,4.1c0.4-7.7,6.7-12.5,16.5-12.5h32.1c6.3,0,11.4-5.1,11.4-11.4v-4.1c0-0.6-0.4-1-1-1
	h-40.9c-23.7,0-34.9,14.7-34.9,34.2v35.1C270.8,111,271.3,111.4,271.8,111.4z M662.9,111.4h17.5c0.6,0,1-0.4,1-1V67.9
	c0-8.2,5.3-11.7,11.2-11.7c5.7,0,11.2,3.5,11.2,11.7v42.6c0,0.6,0.4,1,1,1h17.5c0.6,0,1-0.4,1-1V67c0-16.6-11.7-27.3-30.6-27.3
	c-19.3,0-30.8,10.6-30.8,27.3v43.5C661.9,111,662.4,111.4,662.9,111.4z M619.2,112.9c20.7,0,31.1-12,31.1-26.7V65.3
	c0-15.5-11.8-25.6-30.6-25.6c-21,0-30.2,12-30.2,25.5v3.3c0,0.6,0.4,1,1,1h17.5c0.6,0,1-0.4,1-1V66c0-6.4,4.1-9.9,10.7-9.9
	c6.7,0,11.1,3.5,11.1,10.3v18.9c0,6.7-4.1,11.1-11.6,11.1c-6.9,0-11.8-4.3-11.8-9.9v-2.5c0-0.6-0.4-1-1-1h-17.5c-0.6,0-1,0.4-1,1V87
	C587.9,100.8,598.5,112.9,619.2,112.9z M548.3,112.9c20.5,0,30.9-9.7,30.9-22.4c0-7.9-4.2-12.9-10.2-14.6c5.9-2.4,8-8.1,8-13.5
	c0-12.9-10.6-22.7-29.2-22.7c-20.6,0-30.6,11.2-30.6,25.1v1c0,0.6,0.4,1,1,1h17.5c0.6,0,1-0.4,1-1V65c0-6.1,4.7-9.1,11.1-9.1
	c6.6,0,10.8,2.7,10.8,7.2c0,4.6-3.9,6.1-9.3,6.1h-4.1c-0.6,0-1,0.4-1,1v12.2c0,0.6,0.4,1,1,1h4.1c6.5,0,10.4,1.4,10.4,6.2
	c0,4.3-4.1,6.9-11.4,6.9c-7.1,0-12-3-12-8.3v-1.4c0-0.6-0.4-1-1-1h-17.5c-0.6,0-1,0.4-1,1v2.4C516.8,101.4,526.3,112.9,548.3,112.9z
	 M373.3,111.4h17.5c0.6,0,1-0.4,1-1V67.9c0-8.2,5.3-11.7,11.2-11.7c5.7,0,11.2,3.5,11.2,11.7v42.6c0,0.6,0.4,1,1,1h17.5
	c0.6,0,1-0.4,1-1V67c0-16.6-11.7-27.3-30.6-27.3c-19.3,0-30.8,10.6-30.8,27.3v43.5C372.3,111,372.8,111.4,373.3,111.4z M231.3,112.9
	c20.8,0,31.2-10.8,31.2-24c0-7.8-4.1-15.1-12.9-18.2c3.9-3,6-7.1,6-12.3c0-12.6-13-18.7-24.7-18.7c-12.8,0-25.5,5.8-26,19.9
	c0,0.6,0.4,1,1,1h16.6c0.5,0,0.9-0.4,1-0.8c0.5-2.6,3.1-4.4,6.8-4.4c3.8,0,6.8,1.8,6.8,5.1c0,3.7-2.4,5.6-8,5.8
	c-19.3,0.8-28.9,10.4-28.9,22.6C200.1,102,210.5,112.9,231.3,112.9z"/>
</svg>
