<?xml version="1.0" encoding="utf-8"?>
<!-- Generator: Adobe Illustrator 23.0.1, SVG Export Plug-In . SVG Version: 6.00 Build 0)  -->
<svg version="1.1" id="Layer_1" xmlns="http://www.w3.org/2000/svg" xmlns:xlink="http://www.w3.org/1999/xlink" x="0px" y="0px"
	 viewBox="0 0 355.62 363.11" style="enable-background:new 0 0 355.62 363.11;" xml:space="preserve">
<style type="text/css">
	.st0{fill:#FFFFFF;}
	.st1{fill:#209C48;}
</style>
<g>
	<g>
		<path class="st0" d="M251.47,307.65c-52.73-2.27-99.04-20.06-138.03-54.66c-34.6-30.7-56.27-68.64-65.52-113.23
			c-2.75-13.26-4.12-26.67-4.01-40.17c0.04-5.89,2.17-11.33,6.62-15.65c4.98-4.84,10.13-9.53,14.93-14.53
			c12.17-12.66,32.3-12.19,45.37-0.34c5.13,4.65,8.67,10.18,10.43,16.85c2.62,9.95,5.71,19.78,8.23,29.75
			c2.81,11.14-0.01,21.02-8.23,29.34c-3.21,3.25-6.52,6.41-9.86,9.53c-1.03,0.96-1.27,1.77-0.82,3.15
			c14.02,43.22,43.31,71.67,87.84,85.43c1.69,0.52,2.73,0.28,3.94-0.98c3.12-3.22,6.32-6.36,9.64-9.38
			c8.64-7.86,18.86-10.61,30.34-7.85c11.14,2.68,22.24,5.58,33.22,8.81c17.49,5.13,30.81,26.31,20.55,45.53
			c-1.93,3.62-4.63,6.64-8.38,9.07c-3.59,2.32-6.58,5.43-9.08,8.91c-5.77,8.02-13.54,10.6-22.37,10.63
			C254.67,307.88,253.07,307.73,251.47,307.65z"/>
	</g>
	<g>
		<path class="st0" d="M219.91,184.29l-9.47-0.63c0,0,0,0,0,0c0.77-11.76-2.17-20.89-8.72-27.17
			c-13.64-13.04-38.6-10.43-38.84-10.43c0,0,0,0,0,0l-1.04-9.41c0,0,0,0,0,0c1.2-0.13,29.63-3.07,46.43,12.99
			C216.95,157.93,220.86,169.58,219.91,184.29C219.91,184.29,219.91,184.29,219.91,184.29z"/>
	</g>
	<g>
		<path class="st0" d="M293.29,179.57l-9.47-0.63c0,0,0,0,0,0c2.31-35.29-6.72-62.92-26.83-82.17
			c-40.72-38.94-114.04-31.4-114.78-31.31c0,0,0,0,0,0l-1.04-9.41c0,0,0,0,0,0c3.15-0.41,78.42-8.15,122.34,33.84
			C285.77,111.16,295.78,141.31,293.29,179.57C293.29,179.57,293.29,179.57,293.29,179.57z"/>
	</g>
	<g>
		<path class="st0" d="M257.42,182.18l-9.47-0.63c0,0,0,0,0,0c1.55-23.69-4.48-42.22-17.91-55.05
			c-27.4-26.17-76.78-21.01-77.29-20.99c0,0,0,0,0,0l-1.04-9.41c0,0,0,0,0,0c2.21-0.26,54.33-5.65,84.88,23.54
			C252.15,134.52,259.15,155.54,257.42,182.18C257.42,182.18,257.42,182.18,257.42,182.18z"/>
	</g>
</g>
<g>
	<g>
		<path class="st1" d="M-122.77,307.65c-52.73-2.27-99.04-20.06-138.03-54.66c-34.6-30.7-56.27-68.64-65.52-113.23
			c-2.75-13.26-4.12-26.67-4.01-40.17c0.04-5.89,2.17-11.33,6.62-15.65c4.98-4.84,10.13-9.53,14.93-14.53
			c12.17-12.66,32.3-12.19,45.37-0.34c5.13,4.65,8.67,10.18,10.43,16.85c2.62,9.95,5.71,19.78,8.23,29.75
			c2.81,11.14-0.01,21.02-8.23,29.34c-3.21,3.25-6.52,6.41-9.86,9.53c-1.03,0.96-1.27,1.77-0.82,3.15
			c14.02,43.22,43.31,71.67,87.84,85.43c1.69,0.52,2.73,0.28,3.94-0.98c3.12-3.22,6.32-6.36,9.64-9.38
			c8.64-7.86,18.86-10.61,30.34-7.85c11.14,2.68,22.24,5.58,33.22,8.81c17.49,5.13,30.81,26.31,20.55,45.53
			c-1.93,3.62-4.63,6.64-8.38,9.07c-3.59,2.32-6.58,5.43-9.08,8.91c-5.77,8.02-13.54,10.6-22.37,10.63
			C-119.57,307.88-121.17,307.73-122.77,307.65z"/>
	</g>
	<g>
		<path class="st1" d="M-154.33,184.29l-9.47-0.63c0,0,0,0,0,0c0.77-11.76-2.17-20.89-8.72-27.17
			c-13.64-13.04-38.6-10.43-38.84-10.43c0,0,0,0,0,0l-1.04-9.41c0,0,0,0,0,0c1.2-0.13,29.63-3.07,46.43,12.99
			C-157.29,157.93-153.38,169.58-154.33,184.29C-154.33,184.29-154.33,184.29-154.33,184.29z"/>
	</g>
	<g>
		<path class="st1" d="M-80.95,179.57l-9.47-0.63c0,0,0,0,0,0c2.31-35.29-6.72-62.92-26.83-82.17
			c-40.72-38.94-114.04-31.4-114.78-31.31c0,0,0,0,0,0l-1.04-9.41c0,0,0,0,0,0c3.15-0.41,78.42-8.15,122.34,33.84
			C-88.47,111.16-78.46,141.31-80.95,179.57C-80.95,179.57-80.95,179.57-80.95,179.57z"/>
	</g>
	<g>
		<path class="st1" d="M-116.82,182.18l-9.47-0.63c0,0,0,0,0,0c1.55-23.69-4.48-42.22-17.91-55.05
			c-27.4-26.17-76.78-21.01-77.29-20.99c0,0,0,0,0,0l-1.04-9.41c0,0,0,0,0,0c2.21-0.26,54.33-5.65,84.88,23.54
			C-122.09,134.52-115.09,155.54-116.82,182.18C-116.82,182.18-116.82,182.18-116.82,182.18z"/>
	</g>
</g>
</svg>
